<svg xmlns="http://www.w3.org/2000/svg" width="16" height="16" viewBox="0 0 16 16" fill="none">
  <path fill-rule="evenodd" clip-rule="evenodd" d="M11.5355 2.34309C10.6568 1.46441 9.23223 1.46441 8.35355 2.34309L3.4038 7.29284C1.93933 8.75731 1.93933 11.1317 3.4038 12.5961C4.86827 14.0606 7.24264 14.0606 8.7071 12.5961L12.773 8.53028L13.8336 9.59094L9.76776 13.6568C7.71751 15.7071 4.39339 15.7071 2.34314 13.6568C0.292888 11.6065 0.292887 8.28243 2.34314 6.23218L7.29289 1.28243C8.75735 -0.182035 11.1317 -0.182034 12.5962 1.28243C14.0607 2.7469 14.0607 5.12127 12.5962 6.58573L7.64644 11.5355C6.76776 12.4142 5.34314 12.4142 4.46446 11.5355C3.58578 10.6568 3.58578 9.23218 4.46446 8.3535L9.94454 2.87342L11.0052 3.93408L5.52512 9.41416C5.23223 9.70705 5.23223 10.1819 5.52512 10.4748C5.81801 10.7677 6.29289 10.7677 6.58578 10.4748L11.5355 5.52507C12.4142 4.64639 12.4142 3.22177 11.5355 2.34309Z" fill="#5D7283"/>
</svg>