<svg width="82" height="14" viewBox="0 0 82 14" fill="none" xmlns="http://www.w3.org/2000/svg">
<g id="text">
<path id="Vector" d="M9.63006 13.6212V0.906128H7.67607V5.66365C7.67607 5.73445 7.6336 5.79108 7.5628 5.8194C7.492 5.84772 7.42121 5.8194 7.37873 5.77692C6.71324 4.99816 5.67961 4.55923 4.54687 4.55923C2.12563 4.55923 0.228287 6.59816 0.228287 9.20347C0.228287 10.4778 0.667225 11.653 1.4743 12.5167C2.28138 13.3805 3.37165 13.8477 4.54687 13.8477C5.66545 13.8477 6.69908 13.3805 7.37873 12.5734C7.42121 12.5167 7.50616 12.5026 7.5628 12.5167C7.6336 12.5451 7.67607 12.6017 7.67607 12.6725V13.6212H9.63006ZM4.97165 12.0778C3.41413 12.0778 2.19643 10.8176 2.19643 9.20347C2.19643 7.58931 3.41413 6.32914 4.97165 6.32914C6.52917 6.32914 7.74687 7.58931 7.74687 9.20347C7.74687 10.8176 6.52917 12.0778 4.97165 12.0778Z" fill="#11171C"/>
<path id="Vector_2" d="M20.0796 13.607V4.77159H18.1398V5.66363C18.1398 5.73442 18.0973 5.79106 18.0265 5.81938C17.9557 5.8477 17.8849 5.81938 17.8424 5.76274C17.1911 4.98398 16.1716 4.54504 15.0106 4.54504C12.5893 4.54504 10.692 6.58398 10.692 9.18929C10.692 11.7946 12.5893 13.8335 15.0106 13.8335C16.1292 13.8335 17.1628 13.3663 17.8424 12.545C17.8849 12.4884 17.9699 12.4742 18.0265 12.4884C18.0973 12.5167 18.1398 12.5734 18.1398 12.6442V13.607H20.0796ZM15.4495 12.0778C13.892 12.0778 12.6743 10.8176 12.6743 9.20345C12.6743 7.58929 13.892 6.32912 15.4495 6.32912C17.007 6.32912 18.2247 7.58929 18.2247 9.20345C18.2247 10.8176 17.007 12.0778 15.4495 12.0778Z" fill="#11171C"/>
<path id="Vector_3" d="M36.6885 13.6212V4.77159H34.7487V5.66363C34.7487 5.73442 34.7062 5.79106 34.6354 5.81938C34.5646 5.8477 34.4938 5.81938 34.4513 5.76274C33.8 4.98398 32.7805 4.54504 31.6195 4.54504C29.1841 4.54504 27.3009 6.58398 27.3009 9.20345C27.3009 11.8229 29.1982 13.8477 31.6195 13.8477C32.738 13.8477 33.7717 13.3804 34.4513 12.5592C34.4938 12.5026 34.5787 12.4884 34.6354 12.5026C34.7062 12.5309 34.7487 12.5875 34.7487 12.6583V13.6212H36.6885ZM32.0584 12.0778C30.5009 12.0778 29.2832 10.8176 29.2832 9.20345C29.2832 7.58929 30.5009 6.32912 32.0584 6.32912C33.6159 6.32912 34.8336 7.58929 34.8336 9.20345C34.8336 10.8176 33.6159 12.0778 32.0584 12.0778Z" fill="#11171C"/>
<path id="Vector_4" d="M40.2424 12.5734C40.2566 12.5734 40.2849 12.5592 40.2991 12.5592C40.3416 12.5592 40.3982 12.5875 40.4265 12.6159C41.092 13.3946 42.1256 13.8336 43.2584 13.8336C45.6796 13.8336 47.577 11.7946 47.577 9.18931C47.577 7.91498 47.138 6.73976 46.3309 5.87604C45.5239 5.01232 44.4336 4.54507 43.2584 4.54507C42.1398 4.54507 41.1062 5.01232 40.4265 5.8194C40.384 5.87604 40.3132 5.8902 40.2424 5.87604C40.1716 5.84772 40.1292 5.79108 40.1292 5.72029V0.906128H38.1752V13.6212H40.1292V12.7291C40.1292 12.6583 40.1716 12.6017 40.2424 12.5734ZM40.0442 9.20347C40.0442 7.58931 41.2619 6.32914 42.8194 6.32914C44.377 6.32914 45.5947 7.58931 45.5947 9.20347C45.5947 10.8176 44.377 12.0778 42.8194 12.0778C41.2619 12.0778 40.0442 10.8035 40.0442 9.20347Z" fill="#11171C"/>
<path id="Vector_5" d="M53.2265 6.58398C53.4106 6.58398 53.5805 6.59814 53.6938 6.62646V4.61584C53.623 4.60168 53.4956 4.58752 53.3681 4.58752C52.3487 4.58752 51.4141 5.11142 50.9186 5.94682C50.8761 6.01761 50.8053 6.04593 50.7345 6.01761C50.6637 6.00345 50.6071 5.93266 50.6071 5.86186V4.7716H48.6672V13.6353H50.6212V9.72735C50.6212 7.78752 51.6124 6.58398 53.2265 6.58398Z" fill="#11171C"/>
<path id="Vector_6" d="M56.9079 4.77161H54.9256V13.6353H56.9079V4.77161Z" fill="#11171C"/>
<path id="Vector_7" d="M55.8885 0.920288C55.223 0.920288 54.6849 1.45834 54.6849 2.12383C54.6849 2.78931 55.223 3.32737 55.8885 3.32737C56.554 3.32737 57.092 2.78931 57.092 2.12383C57.092 1.45834 56.554 0.920288 55.8885 0.920288Z" fill="#11171C"/>
<path id="Vector_8" d="M62.7133 4.54504C59.9947 4.54504 58.0266 6.49903 58.0266 9.20345C58.0266 10.5203 58.4938 11.6955 59.3292 12.545C60.1788 13.3946 61.3681 13.8619 62.6991 13.8619C63.8035 13.8619 64.6531 13.6495 66.2673 12.4601L65.1487 11.2849C64.3558 11.8088 63.6195 12.0636 62.8974 12.0636C61.2549 12.0636 60.023 10.8318 60.023 9.20345C60.023 7.57513 61.2549 6.34327 62.8974 6.34327C63.6761 6.34327 64.3982 6.59814 65.1204 7.12204L66.3664 5.94681C64.908 4.7008 63.5911 4.54504 62.7133 4.54504Z" fill="#11171C"/>
<path id="Vector_9" d="M69.7079 9.72737C69.7362 9.69905 69.7787 9.68489 69.8212 9.68489H69.8354C69.8778 9.68489 69.9203 9.71321 69.9628 9.74153L73.092 13.6212H75.4991L71.4495 8.72206C71.3929 8.65126 71.3929 8.55215 71.4637 8.49551L75.1876 4.77162H72.7946L69.5805 7.99993C69.538 8.04241 69.4672 8.05657 69.3964 8.04241C69.3398 8.01409 69.2973 7.95746 69.2973 7.88666V0.920288H67.3292V13.6353H69.2831V10.1805C69.2831 10.138 69.2973 10.0814 69.3398 10.053L69.7079 9.72737Z" fill="#11171C"/>
<path id="Vector_10" d="M78.6849 13.8477C80.2849 13.8477 81.9133 12.8707 81.9133 11.0158C81.9133 9.79814 81.1487 8.96274 79.5911 8.45301L78.5292 8.09903C77.8071 7.85832 77.4672 7.51849 77.4672 7.05124C77.4672 6.51318 77.9487 6.14504 78.6283 6.14504C79.2796 6.14504 79.8602 6.56982 80.2283 7.3061L81.8 6.45655C81.2195 5.26717 80.0159 4.53088 78.6283 4.53088C76.8726 4.53088 75.5982 5.66363 75.5982 7.20699C75.5982 8.43885 76.3345 9.26009 77.8495 9.7415L78.9398 10.0955C79.7044 10.3362 80.0301 10.6477 80.0301 11.1433C80.0301 11.8937 79.3363 12.1627 78.7416 12.1627C77.9487 12.1627 77.2407 11.653 76.9009 10.8176L75.3009 11.6672C75.8248 13.0123 77.1133 13.8477 78.6849 13.8477Z" fill="#11171C"/>
<path id="Vector_11" d="M25.5168 13.7627C26.1398 13.7627 26.692 13.7061 27.0035 13.6636V11.9645C26.7487 11.9928 26.2956 12.0211 26.0265 12.0211C25.2336 12.0211 24.6248 11.8795 24.6248 10.1663V6.52731C24.6248 6.4282 24.6956 6.3574 24.7947 6.3574H26.7062V4.7574H24.7947C24.6956 4.7574 24.6248 4.68661 24.6248 4.58749V2.03882H22.6708V4.60165C22.6708 4.70077 22.6 4.77156 22.5009 4.77156H21.1416V6.37156H22.5009C22.6 6.37156 22.6708 6.44236 22.6708 6.54147V10.6618C22.6708 13.7627 24.738 13.7627 25.5168 13.7627Z" fill="#11171C"/>
</g>
</svg>
