<svg width="17" height="16" viewBox="0 0 17 16" fill="none" xmlns="http://www.w3.org/2000/svg">
<g id="syncIcon">
<path id="Path" fill-rule="evenodd" clip-rule="evenodd" d="M8.49998 2.5C7.0173 2.5 5.67298 3.0857 4.68318 4.03994L4.67424 4.04855L4.17385 4.5H5.49998V6L1.5 6V2L3 2V3.53879L3.65129 2.95121C4.90854 1.74351 6.61821 1 8.49998 1C12.366 1 15.5 4.13401 15.5 8H14C14 4.96243 11.5375 2.5 8.49998 2.5ZM15.5 10H11.5V11.5H12.8262L12.3258 11.9514L12.3168 11.9601C11.327 12.9143 9.9827 13.5 8.50002 13.5C5.46245 13.5 3.00002 11.0376 3.00002 8H1.50002C1.50002 11.866 4.63403 15 8.50002 15C10.3818 15 12.0915 14.2565 13.3487 13.0488L14 12.4612V14H15.5V10Z" fill="#5F7281"/>
</g>
</svg>
