<svg width="17" height="16" viewBox="0 0 17 16" fill="none" xmlns="http://www.w3.org/2000/svg">
<g id="ThumbsUpIcon">
<path id="Path" fill-rule="evenodd" clip-rule="evenodd" d="M7.14789 1.02877C7.26827 0.757924 7.53686 0.583374 7.83325 0.583374C8.5626 0.583374 9.26207 0.873105 9.7778 1.38883C10.2935 1.90456 10.5833 2.60403 10.5833 3.33337V5.25004H13.6028C13.9032 5.24732 14.2006 5.30959 14.4747 5.43261C14.7503 5.55627 14.9956 5.73835 15.1938 5.96625C15.3919 6.19415 15.5382 6.4624 15.6224 6.75243C15.7066 7.04247 15.7267 7.34734 15.6814 7.64592L14.7614 13.6458C14.686 14.1424 14.4336 14.5955 14.0509 14.9208C13.6693 15.2452 13.1836 15.4212 12.6828 15.4167H3.16659C2.61405 15.4167 2.08415 15.1972 1.69345 14.8065C1.30275 14.4158 1.08325 13.8859 1.08325 13.3334V8.66671C1.08325 8.11417 1.30275 7.58427 1.69345 7.19357C2.08415 6.80287 2.61405 6.58337 3.16659 6.58337H4.67918L7.14789 1.02877ZM4.41659 8.08337H3.16659C3.01188 8.08337 2.8635 8.14483 2.75411 8.25423C2.64471 8.36363 2.58325 8.512 2.58325 8.66671V13.3334C2.58325 13.4881 2.64471 13.6365 2.75411 13.7459C2.8635 13.8552 3.01188 13.9167 3.16659 13.9167H4.41659V8.08337ZM5.91659 13.9167H12.6951C12.8357 13.9183 12.9723 13.869 13.0795 13.7779C13.1866 13.6868 13.2573 13.56 13.2784 13.4209L14.1984 7.42083C14.211 7.33745 14.2054 7.25163 14.1819 7.17065C14.1583 7.08944 14.1174 7.01433 14.0619 6.95052C14.0064 6.88671 13.9377 6.83572 13.8605 6.8011C13.7834 6.76647 13.6996 6.74904 13.6151 6.74999L13.6066 6.75009L9.83325 6.75004C9.41904 6.75004 9.08325 6.41425 9.08325 6.00004V3.33337C9.08325 3.00185 8.95156 2.68391 8.71714 2.44949C8.59262 2.32498 8.44455 2.22944 8.28339 2.16723L5.91659 7.49253V13.9167Z" fill="#5F7281"/>
</g>
</svg>
