<svg width="17" height="16" viewBox="0 0 17 16" fill="none" xmlns="http://www.w3.org/2000/svg">
<g id="ThumbsDownIcon">
<path id="Path" fill-rule="evenodd" clip-rule="evenodd" d="M14.1551 2.27368C14.0082 2.14759 13.8202 2.07983 13.6266 2.08325L13.6134 2.08349L12.5834 2.08337V7.9167H13.6266C13.8202 7.92013 14.0082 7.85248 14.1551 7.72639C14.2913 7.60949 14.3833 7.45 14.4167 7.27448V2.72559C14.3833 2.55008 14.2913 2.39058 14.1551 2.27368ZM11.0834 8.50754V2.08337H4.30487C4.1642 2.08178 4.02768 2.13104 3.92049 2.22215C3.81329 2.31327 3.74264 2.44006 3.72154 2.57916L3.72136 2.58038L2.80153 8.57925C2.78893 8.66271 2.79452 8.74837 2.81805 8.82943C2.84163 8.91064 2.88258 8.98575 2.93807 9.04956C2.99356 9.11337 3.06225 9.16436 3.1394 9.19898C3.21655 9.23361 3.3003 9.25104 3.38486 9.25009L3.39335 9.24999L7.16669 9.25004C7.5809 9.25004 7.91669 9.58582 7.91669 10V12.6667C7.91669 12.9982 8.04838 13.3162 8.2828 13.5506C8.40732 13.6751 8.55539 13.7706 8.71655 13.8328L11.0834 8.50754ZM12.3208 9.4167L9.85205 14.9713C9.73167 15.2422 9.46308 15.4167 9.16669 15.4167C8.43734 15.4167 7.73787 15.127 7.22214 14.6112C6.70642 14.0955 6.41669 13.3961 6.41669 12.6667V10.75H3.39707C3.0967 10.7528 2.79928 10.6905 2.52521 10.5675C2.24968 10.4438 2.00433 10.2617 1.80616 10.0338C1.60799 9.80593 1.46174 9.53768 1.37753 9.24765C1.29333 8.95761 1.27319 8.65274 1.31851 8.35416L2.2385 2.35425C2.31396 1.85774 2.56635 1.40451 2.94901 1.07925C3.33066 0.754847 3.81636 0.578841 4.31712 0.583371H13.6074C14.1659 0.57527 14.7082 0.771577 15.1321 1.13549C15.5579 1.50098 15.8347 2.01009 15.9099 2.56617C15.9144 2.59949 15.9167 2.63308 15.9167 2.6667V7.33337C15.9167 7.367 15.9144 7.40058 15.9099 7.4339C15.8347 7.98999 15.5579 8.4991 15.1321 8.86459C14.7082 9.2285 14.1659 9.42481 13.6074 9.4167H12.3208Z" fill="#5F7281"/>
</g>
</svg>
