<svg width="16" height="16" viewBox="0 0 16 16" fill="none" xmlns="http://www.w3.org/2000/svg">
<g id="buttonIcon">
<path id="vector" fill-rule="evenodd" clip-rule="evenodd" d="M10.7258 8.81331L13.1987 8.00002L10.7258 7.18674C9.82078 6.88908 9.11092 6.17922 8.81326 5.27416L7.99998 2.80127L7.18669 5.27416C6.88903 6.17922 6.17917 6.88908 5.27411 7.18674L2.80122 8.00002L5.27411 8.81331C6.17917 9.11097 6.88903 9.82083 7.18669 10.7259L7.99998 13.1988L8.81326 10.7259C9.11092 9.82083 9.82078 9.11097 10.7258 8.81331ZM13.6674 9.42494C15.0425 8.97267 15.0425 7.02737 13.6674 6.57511L11.1945 5.76182C10.7419 5.61299 10.387 5.25806 10.2382 4.80553L9.42489 2.33264C8.97263 0.957479 7.02732 0.957479 6.57506 2.33264L5.76177 4.80553C5.61294 5.25806 5.25801 5.61299 4.80548 5.76182L2.33259 6.57511C0.957432 7.02737 0.957434 8.97268 2.3326 9.42494L4.80548 10.2382C5.25801 10.3871 5.61294 10.742 5.76177 11.1945L6.57506 13.6674C7.02733 15.0426 8.97263 15.0426 9.42489 13.6674L10.2382 11.1945C10.387 10.742 10.7419 10.3871 11.1945 10.2382L13.6674 9.42494Z" fill="url(#paint0_linear_86_3037)"/>
</g>
<defs>
<linearGradient id="paint0_linear_86_3037" x1="15.3048" y1="0.322993" x2="0.248562" y2="15.3792" gradientUnits="userSpaceOnUse">
<stop offset="0.235" stop-color="#4299E0"/>
<stop offset="0.47" stop-color="#CA42E0"/>
<stop offset="0.76" stop-color="#FF5F46"/>
</linearGradient>
</defs>
</svg>
