<svg width="17" height="16" viewBox="0 0 17 16" fill="none" xmlns="http://www.w3.org/2000/svg">
<g id="copyIcon">
<path id="Path" fill-rule="evenodd" clip-rule="evenodd" d="M2.25 1C1.83579 1 1.5 1.33579 1.5 1.75V10.25C1.5 10.6642 1.83579 11 2.25 11H5.5V14.25C5.5 14.6642 5.83579 15 6.25 15H14.75C15.1642 15 15.5 14.6642 15.5 14.25V5.75C15.5 5.33579 15.1642 5 14.75 5H11.5V1.75C11.5 1.33579 11.1642 1 10.75 1H2.25ZM10 5V2.5H3V9.5H5.5V5.75C5.5 5.33579 5.83579 5 6.25 5H10ZM7 13.5V6.5H14V13.5H7Z" fill="#5F7281"/>
</g>
</svg>
