<svg width="15" height="16" viewBox="0 0 15 16" fill="none" xmlns="http://www.w3.org/2000/svg">
<path id="icon" d="M14.0035 6.59823L7.40531 10.3221L0.339823 6.34336L0 6.52743V9.41593L7.40531 13.5788L14.0035 9.86903V11.3982L7.40531 15.1221L0.339823 11.1434L0 11.3274V11.823L7.40531 15.9858L14.7965 11.823V8.93451L14.4566 8.75044L7.40531 12.715L0.79292 9.00531V7.47611L7.40531 11.1858L14.7965 7.02301V4.17699L14.4283 3.9646L7.40531 7.91505L1.13274 4.40354L7.40531 0.877877L12.5593 3.78053L13.0124 3.52566V3.17168L7.40531 0.0141602L0 4.17699V4.63009L7.40531 8.79292L14.0035 5.06903V6.59823Z" fill="#FF3621"/>
</svg>
