<svg id="svg" xmlns="http://www.w3.org/2000/svg" xmlns:xlink="http://www.w3.org/1999/xlink" width="400" height="400" viewBox="0, 0, 400,400"><g id="svgg"><path id="path0" d="M111.328 61.199 L 23.828 109.872 23.600 114.971 L 23.372 120.069 111.688 169.123 L 200.004 218.178 279.494 174.019 L 358.984 129.860 359.194 148.286 C 359.355 162.389,359.172 166.927,358.413 167.626 C 357.156 168.786,200.822 256.250,200.006 256.250 C 199.674 256.250,161.690 235.139,115.597 209.337 C 69.504 183.535,31.345 162.596,30.799 162.806 C 30.253 163.015,28.370 164.094,26.614 165.202 L 23.421 167.218 23.624 200.524 L 23.828 233.830 111.719 282.535 C 160.059 309.324,199.785 331.242,200.000 331.242 C 200.215 331.243,236.162 311.417,279.883 287.186 L 359.375 243.129 359.343 261.994 L 359.311 280.859 280.328 325.000 C 236.888 349.277,200.930 369.242,200.423 369.366 C 199.915 369.490,161.763 348.468,115.641 322.651 C 69.519 296.833,31.338 275.880,30.794 276.089 C 22.637 279.219,20.220 287.747,26.367 291.711 C 32.560 295.705,198.044 387.008,199.566 387.271 C 200.583 387.447,233.089 369.843,288.281 339.226 L 375.391 290.904 375.586 256.975 L 375.782 223.047 372.697 221.289 C 371.001 220.322,369.108 219.531,368.491 219.531 C 367.875 219.531,329.714 240.610,283.690 266.374 L 200.010 313.217 120.318 268.612 L 40.625 224.006 40.625 205.316 C 40.625 195.037,40.889 186.789,41.211 186.988 C 41.533 187.187,77.395 207.042,120.904 231.111 L 200.012 274.873 287.701 226.262 L 375.391 177.650 375.391 144.098 L 375.391 110.547 371.828 108.665 L 368.265 106.783 284.134 153.866 L 200.003 200.949 124.220 158.526 C 82.540 135.194,48.444 115.908,48.452 115.669 C 48.460 115.430,82.565 96.307,124.242 73.173 L 200.018 31.112 261.923 65.517 L 323.828 99.923 328.516 97.294 L 333.203 94.666 333.433 90.442 L 333.663 86.219 267.350 49.359 C 230.877 29.087,200.539 12.506,199.932 12.513 C 199.325 12.519,159.453 34.428,111.328 61.199 " stroke="none" fill="#FF3621" fill-rule="evenodd"></path></g></svg>