<svg xmlns="http://www.w3.org/2000/svg" version="1.1" xmlns:xlink="http://www.w3.org/1999/xlink" xmlns:svgjs="http://svgjs.dev/svgjs" width="1500" height="295" viewBox="0 0 1500 295"><g transform="matrix(1,0,0,1,-0.9090909090909918,-0.5182398109753024)"><svg viewBox="0 0 396 78" data-background-color="#ffffff" preserveAspectRatio="xMidYMid meet" height="295" width="1500" xmlns="http://www.w3.org/2000/svg" xmlns:xlink="http://www.w3.org/1999/xlink"><g id="tight-bounds" transform="matrix(1,0,0,1,0.2400000000000091,0.13702611951211452)"><svg viewBox="0 0 395.52 77.72594776097577" height="77.72594776097577" width="395.52"><g><svg viewBox="0 0 545.9649131454295 107.29075727767831" height="77.72594776097577" width="395.52"><g><rect width="7.0059527808205235" height="107.29075727767831" x="125.09876983890076" y="0" fill="#252422" opacity="1" stroke-width="0" stroke="transparent" fill-opacity="1" class="rect-qz-0" data-fill-palette-color="primary" rx="1%" id="qz-0" data-palette-color="#252422"></rect></g><g transform="matrix(1,0,0,1,150.44491314542947,0.26689243103899685)"><svg viewBox="0 0 395.52 106.75697241560032" height="106.75697241560032" width="395.52"><g id="textblocktransform"><svg viewBox="0 0 395.52 106.75697241560032" height="106.75697241560032" width="395.52" id="textblock"><g><svg viewBox="0 0 395.52 77.68765366114377" height="77.68765366114377" width="395.52"><g transform="matrix(1,0,0,1,0,0)"><svg width="395.52" viewBox="1.5499999999999998 -36.15 187.08999999999997 36.75" height="77.68765366114377" data-palette-color="#252422"><path d="M12.35 0.6Q8.7 0.6 6.28-0.48 3.85-1.55 2.7-3.3 1.55-5.05 1.55-7.1L1.55-7.1Q1.55-7.7 1.58-7.93 1.6-8.15 1.6-8.2L1.6-8.2 5.95-8.2 5.95-7.7Q5.95-5.35 7.8-4.17 9.65-3 12.6-3L12.6-3Q15.15-3 16.82-4.03 18.5-5.05 18.5-6.9L18.5-6.9Q18.5-8.35 17.55-9.28 16.6-10.2 15.2-10.73 13.8-11.25 11.4-11.85L11.4-11.85Q8.5-12.6 6.68-13.35 4.85-14.1 3.58-15.58 2.3-17.05 2.3-19.4L2.3-19.4Q2.3-22.85 5.13-24.88 7.95-26.9 12.75-26.9L12.75-26.9Q15.75-26.9 17.95-25.93 20.15-24.95 21.28-23.33 22.4-21.7 22.4-19.7L22.4-19.7 22.35-18.75 18.05-18.75 18.05-19.2Q18.05-20.95 16.68-22.1 15.3-23.25 12.25-23.25L12.25-23.25Q9.25-23.25 8.05-22.18 6.85-21.1 6.85-19.7L6.85-19.7Q6.85-18.55 7.7-17.8 8.55-17.05 9.8-16.6 11.05-16.15 13.3-15.6L13.3-15.6Q16.4-14.8 18.35-14.03 20.3-13.25 21.68-11.68 23.05-10.1 23.05-7.5L23.05-7.5Q23.05-3.45 20.13-1.43 17.2 0.6 12.35 0.6L12.35 0.6ZM35.5 0.6Q32.1 0.6 29.45-1 26.8-2.6 26.8-6.8L26.8-6.8Q26.8-11.85 31.3-13.73 35.8-15.6 44.3-15.6L44.3-15.6 44.3-18.5Q44.3-20.8 43-22.03 41.7-23.25 38.3-23.25L38.3-23.25Q35.1-23.25 33.72-22.05 32.35-20.85 32.35-19.1L32.35-19.1 32.35-18.5 28.1-18.5Q28.05-18.8 28.05-19.6L28.05-19.6Q28.05-23.1 30.95-25 33.85-26.9 38.7-26.9L38.7-26.9Q43.6-26.9 46.15-24.85 48.7-22.8 48.7-19.05L48.7-19.05 48.7-4.8Q48.7-3.9 49.2-3.48 49.7-3.05 50.45-3.05L50.45-3.05 52.45-3.05 52.45-0.2Q51.15 0.4 49.05 0.4L49.05 0.4Q47.35 0.4 46.2-0.63 45.05-1.65 44.65-3.35L44.65-3.35 44.3-3.35Q42.95-1.5 40.62-0.45 38.3 0.6 35.5 0.6L35.5 0.6ZM36.65-3.05Q38.6-3.05 40.35-3.85 42.1-4.65 43.2-6.23 44.3-7.8 44.3-10.05L44.3-10.05 44.3-11.95Q37.85-11.95 34.62-10.93 31.4-9.9 31.4-7.05L31.4-7.05Q31.4-4.9 32.72-3.98 34.05-3.05 36.65-3.05L36.65-3.05ZM56.15 0L56.15-26.3 59.5-26.3 60-22.75 60.34-22.75Q63.25-26.9 69.2-26.9L69.2-26.9Q73.15-26.9 75.27-24.78 77.4-22.65 77.4-17.95L77.4-17.95 77.4 0 73 0 73-17.65Q73-20.8 71.59-22.03 70.2-23.25 67.55-23.25L67.55-23.25Q65.65-23.25 64.05-22.33 62.45-21.4 61.5-19.65 60.55-17.9 60.55-15.55L60.55-15.55 60.55 0 56.15 0ZM92.74 0.6Q87.74 0.6 85.04-2.75 82.34-6.1 82.34-13.15L82.34-13.15Q82.34-20.05 85.02-23.48 87.69-26.9 92.34-26.9L92.34-26.9Q95.14-26.9 97.09-26.05 99.04-25.2 100.34-23.3L100.34-23.3 100.64-23.3 100.64-36.15 105.04-36.15 105.04 0 101.74 0 101.19-3.55 100.89-3.55Q99.59-1.5 97.47-0.45 95.34 0.6 92.74 0.6L92.74 0.6ZM93.84-3.05Q97.39-3.05 99.02-5.55 100.64-8.05 100.64-12.95L100.64-12.95 100.64-13.15Q100.64-18.15 98.99-20.7 97.34-23.25 93.84-23.25L93.84-23.25Q91.34-23.25 89.82-22.28 88.29-21.3 87.59-19.1 86.89-16.9 86.89-13.15L86.89-13.15 86.89-12.95Q86.89-9.25 87.59-7.1 88.29-4.95 89.79-4 91.29-3.05 93.84-3.05L93.84-3.05ZM124.04 0.6Q121.44 0.6 119.31-0.45 117.19-1.5 115.89-3.55L115.89-3.55 115.59-3.55 115.04 0 111.74 0 111.74-36.15 116.14-36.15 116.14-23.3 116.44-23.3Q117.74-25.2 119.69-26.05 121.64-26.9 124.44-26.9L124.44-26.9Q129.09-26.9 131.76-23.48 134.44-20.05 134.44-13.15L134.44-13.15Q134.44-6.1 131.74-2.75 129.04 0.6 124.04 0.6L124.04 0.6ZM122.94-3.05Q125.49-3.05 126.99-4 128.49-4.95 129.19-7.1 129.89-9.25 129.89-12.95L129.89-12.95 129.89-13.15Q129.89-16.9 129.19-19.1 128.49-21.3 126.97-22.28 125.44-23.25 122.94-23.25L122.94-23.25Q119.44-23.25 117.79-20.7 116.14-18.15 116.14-13.15L116.14-13.15 116.14-12.95Q116.14-8.05 117.77-5.55 119.39-3.05 122.94-3.05L122.94-3.05ZM150.09 0.6Q144.04 0.6 140.99-2.78 137.94-6.15 137.94-13.15L137.94-13.15Q137.94-20.15 140.99-23.53 144.04-26.9 150.09-26.9L150.09-26.9Q156.14-26.9 159.19-23.53 162.24-20.15 162.24-13.15L162.24-13.15Q162.24-6.15 159.19-2.78 156.14 0.6 150.09 0.6L150.09 0.6ZM150.09-3.05Q154.09-3.05 155.89-5.38 157.69-7.7 157.69-12.95L157.69-12.95 157.69-13.35Q157.69-18.6 155.89-20.93 154.09-23.25 150.09-23.25L150.09-23.25Q146.09-23.25 144.29-20.93 142.49-18.6 142.49-13.35L142.49-13.35 142.49-12.95Q142.49-7.7 144.29-5.38 146.09-3.05 150.09-3.05L150.09-3.05ZM164.34 0L174.09-13.45 164.79-26.3 170.14-26.3 176.39-16.95 176.69-16.95 183.09-26.3 188.19-26.3 178.89-13.55 188.64 0 183.34 0 176.59-10.1 176.29-10.1 169.44 0 164.34 0Z" opacity="1" transform="matrix(1,0,0,1,0,0)" fill="#252422" class="wordmark-text-0" data-fill-palette-color="primary" id="text-0"></path></svg></g></svg></g><g transform="matrix(1,0,0,1,0,96.02784418685195)"><svg viewBox="0 0 232.209792 10.729128228748365" height="10.729128228748365" width="232.209792"><g transform="matrix(1,0,0,1,0,0)"><svg width="232.209792" viewBox="0.8 -36.5 1033.3400000000001 47.75" height="10.729128228748365" data-palette-color="#252422"><path d="M15.85 0L11.05 0 0.8-26.1 5.4-26.1 13.6-4.2 21.8-26.1 26.1-26.1 15.85 0ZM41.15 0.5L41.15 0.5Q38.2 0.5 35.77-0.58 33.35-1.65 31.57-3.53 29.8-5.4 28.82-7.85 27.85-10.3 27.85-13.05L27.85-13.05Q27.85-16.75 29.55-19.8 31.25-22.85 34.27-24.7 37.3-26.55 41.2-26.55L41.2-26.55Q45.15-26.55 48.07-24.68 51-22.8 52.62-19.78 54.25-16.75 54.25-13.25L54.25-13.25Q54.25-12.75 54.22-12.28 54.2-11.8 54.15-11.55L54.15-11.55 32.5-11.55Q32.7-9 33.92-7.03 35.15-5.05 37.1-3.93 39.05-2.8 41.3-2.8L41.3-2.8Q43.7-2.8 45.82-4 47.95-5.2 48.75-7.15L48.75-7.15 52.55-6.1Q51.7-4.2 50.02-2.7 48.35-1.2 46.07-0.35 43.8 0.5 41.15 0.5ZM32.35-14.6L32.35-14.6 50.15-14.6Q49.95-17.15 48.7-19.1 47.45-21.05 45.5-22.15 43.55-23.25 41.2-23.25L41.2-23.25Q38.9-23.25 36.95-22.15 35-21.05 33.77-19.1 32.55-17.15 32.35-14.6ZM72.95-26.25L72.95-22.25Q69.65-22.2 67.12-20.58 64.59-18.95 63.55-16.1L63.55-16.1 63.55 0 59.15 0 59.15-26.1 63.25-26.1 63.25-20.05Q64.59-22.75 66.82-24.43 69.05-26.1 71.5-26.3L71.5-26.3Q72-26.3 72.34-26.3 72.7-26.3 72.95-26.25L72.95-26.25ZM78.49 11L78.49 7.1Q79.14 7.15 79.79 7.23 80.44 7.3 80.79 7.3L80.79 7.3Q81.59 7.3 82.19 6.75 82.79 6.2 83.52 4.63 84.24 3.05 85.39 0L85.39 0 74.34-26.1 78.99-26.1 87.79-4.45 95.74-26.1 100.09-26.1 87.39 6.85Q86.94 8 86.07 9.03 85.19 10.05 83.84 10.65 82.49 11.25 80.59 11.25L80.59 11.25Q80.14 11.25 79.67 11.2 79.19 11.15 78.49 11L78.49 11ZM127.39 0.5L127.39 0.5Q124.44 0.5 122.01-0.58 119.59-1.65 117.81-3.53 116.04-5.4 115.06-7.85 114.09-10.3 114.09-13.05L114.09-13.05Q114.09-16.75 115.79-19.8 117.49-22.85 120.51-24.7 123.54-26.55 127.44-26.55L127.44-26.55Q131.39-26.55 134.31-24.68 137.24-22.8 138.86-19.78 140.49-16.75 140.49-13.25L140.49-13.25Q140.49-12.75 140.46-12.28 140.44-11.8 140.39-11.55L140.39-11.55 118.74-11.55Q118.94-9 120.16-7.03 121.39-5.05 123.34-3.93 125.29-2.8 127.54-2.8L127.54-2.8Q129.94-2.8 132.06-4 134.19-5.2 134.99-7.15L134.99-7.15 138.79-6.1Q137.94-4.2 136.26-2.7 134.59-1.2 132.31-0.35 130.04 0.5 127.39 0.5ZM118.59-14.6L118.59-14.6 136.39-14.6Q136.19-17.15 134.94-19.1 133.69-21.05 131.74-22.15 129.79-23.25 127.44-23.25L127.44-23.25Q125.14-23.25 123.19-22.15 121.24-21.05 120.01-19.1 118.79-17.15 118.59-14.6ZM141.49-26.1L146.34-26.1 153.24-16.5 153.64-15.7 154.09-16.5 160.94-26.1 165.84-26.1 156.19-13 165.89 0 160.99 0 154.09-9.55 153.64-10.3 153.24-9.55 146.34 0 141.44 0 151.14-13 141.49-26.1ZM184.08 0.5L184.08 0.5Q180.88 0.5 178.38-1.1 175.88-2.7 174.43-5.15L174.43-5.15 174.43 10.65 170.03 10.65 170.03-26.1 173.93-26.1 173.93-21.2Q175.48-23.6 177.98-25.08 180.48-26.55 183.43-26.55L183.43-26.55Q186.13-26.55 188.38-25.45 190.63-24.35 192.28-22.45 193.93-20.55 194.86-18.13 195.78-15.7 195.78-13.05L195.78-13.05Q195.78-9.35 194.31-6.25 192.83-3.15 190.18-1.33 187.53 0.5 184.08 0.5ZM182.73-3.3L182.73-3.3Q184.68-3.3 186.26-4.13 187.83-4.95 188.96-6.33 190.08-7.7 190.68-9.45 191.28-11.2 191.28-13.05L191.28-13.05Q191.28-15 190.61-16.75 189.93-18.5 188.71-19.85 187.48-21.2 185.86-21.98 184.23-22.75 182.33-22.75L182.33-22.75Q181.13-22.75 179.86-22.3 178.58-21.85 177.43-21.03 176.28-20.2 175.48-19.15 174.68-18.1 174.43-16.9L174.43-16.9 174.43-9.45Q175.18-7.75 176.43-6.35 177.68-4.95 179.33-4.13 180.98-3.3 182.73-3.3ZM212.73 0.5L212.73 0.5Q209.78 0.5 207.36-0.58 204.93-1.65 203.16-3.53 201.38-5.4 200.41-7.85 199.43-10.3 199.43-13.05L199.43-13.05Q199.43-16.75 201.13-19.8 202.83-22.85 205.86-24.7 208.88-26.55 212.78-26.55L212.78-26.55Q216.73-26.55 219.66-24.68 222.58-22.8 224.21-19.78 225.83-16.75 225.83-13.25L225.83-13.25Q225.83-12.75 225.81-12.28 225.78-11.8 225.73-11.55L225.73-11.55 204.08-11.55Q204.28-9 205.51-7.03 206.73-5.05 208.68-3.93 210.63-2.8 212.88-2.8L212.88-2.8Q215.28-2.8 217.41-4 219.53-5.2 220.33-7.15L220.33-7.15 224.13-6.1Q223.28-4.2 221.61-2.7 219.93-1.2 217.66-0.35 215.38 0.5 212.73 0.5ZM203.93-14.6L203.93-14.6 221.73-14.6Q221.53-17.15 220.28-19.1 219.03-21.05 217.08-22.15 215.13-23.25 212.78-23.25L212.78-23.25Q210.48-23.25 208.53-22.15 206.58-21.05 205.36-19.1 204.13-17.15 203.93-14.6ZM244.53-26.25L244.53-22.25Q241.23-22.2 238.7-20.58 236.18-18.95 235.13-16.1L235.13-16.1 235.13 0 230.73 0 230.73-26.1 234.83-26.1 234.83-20.05Q236.18-22.75 238.4-24.43 240.63-26.1 243.08-26.3L243.08-26.3Q243.58-26.3 243.93-26.3 244.28-26.3 244.53-26.25L244.53-26.25ZM253.28 0L248.88 0 248.88-26.1 253.28-26.1 253.28 0ZM253.28-31L248.88-31 248.88-36.5 253.28-36.5 253.28-31ZM299.72-15.6L299.72 0 295.32 0 295.32-14.6Q295.32-18.7 294-20.65 292.67-22.6 290.07-22.6L290.07-22.6Q287.42-22.6 285.27-20.68 283.12-18.75 282.22-15.7L282.22-15.7 282.22 0 277.82 0 277.82-14.6Q277.82-18.75 276.52-20.68 275.22-22.6 272.62-22.6L272.62-22.6Q270.02-22.6 267.85-20.73 265.67-18.85 264.77-15.75L264.77-15.75 264.77 0 260.37 0 260.37-26.1 264.37-26.1 264.37-20.5Q265.97-23.4 268.52-24.98 271.07-26.55 274.27-26.55L274.27-26.55Q277.52-26.55 279.47-24.78 281.42-23 281.87-20.2L281.87-20.2Q283.62-23.3 286.12-24.93 288.62-26.55 291.82-26.55L291.82-26.55Q294.07-26.55 295.6-25.73 297.12-24.9 298.02-23.43 298.92-21.95 299.32-19.95 299.72-17.95 299.72-15.6L299.72-15.6ZM318.12 0.5L318.12 0.5Q315.17 0.5 312.75-0.58 310.32-1.65 308.55-3.53 306.77-5.4 305.8-7.85 304.82-10.3 304.82-13.05L304.82-13.05Q304.82-16.75 306.52-19.8 308.22-22.85 311.25-24.7 314.27-26.55 318.17-26.55L318.17-26.55Q322.12-26.55 325.05-24.68 327.97-22.8 329.6-19.78 331.22-16.75 331.22-13.25L331.22-13.25Q331.22-12.75 331.2-12.28 331.17-11.8 331.12-11.55L331.12-11.55 309.47-11.55Q309.67-9 310.9-7.03 312.12-5.05 314.07-3.93 316.02-2.8 318.27-2.8L318.27-2.8Q320.67-2.8 322.8-4 324.92-5.2 325.72-7.15L325.72-7.15 329.52-6.1Q328.67-4.2 327-2.7 325.32-1.2 323.05-0.35 320.77 0.5 318.12 0.5ZM309.32-14.6L309.32-14.6 327.12-14.6Q326.92-17.15 325.67-19.1 324.42-21.05 322.47-22.15 320.52-23.25 318.17-23.25L318.17-23.25Q315.87-23.25 313.92-22.15 311.97-21.05 310.75-19.1 309.52-17.15 309.32-14.6ZM358.77-15.6L358.77 0 354.37 0 354.37-14.6Q354.37-18.75 353.09-20.68 351.82-22.6 349.22-22.6L349.22-22.6Q347.42-22.6 345.64-21.7 343.87-20.8 342.49-19.28 341.12-17.75 340.52-15.75L340.52-15.75 340.52 0 336.12 0 336.12-26.1 340.12-26.1 340.12-20.5Q341.17-22.35 342.82-23.7 344.47-25.05 346.57-25.8 348.67-26.55 350.97-26.55L350.97-26.55Q353.22-26.55 354.74-25.73 356.27-24.9 357.14-23.43 358.02-21.95 358.39-19.95 358.77-17.95 358.77-15.6L358.77-15.6ZM377.82-4.8L378.87-1.3Q378.32-1.05 377.37-0.65 376.42-0.25 375.17 0.05 373.92 0.35 372.52 0.35L372.52 0.35Q370.92 0.35 369.57-0.23 368.22-0.8 367.42-2.02 366.62-3.25 366.62-5.1L366.62-5.1 366.62-22.65 363.07-22.65 363.07-26.1 366.62-26.1 366.62-34.8 371.02-34.8 371.02-26.1 376.87-26.1 376.87-22.65 371.02-22.65 371.02-6.45Q371.12-5.05 371.97-4.38 372.82-3.7 373.97-3.7L373.97-3.7Q375.27-3.7 376.37-4.15 377.47-4.6 377.82-4.8L377.82-4.8ZM380.91-7.55L380.91-7.55Q380.91-10.05 382.34-11.88 383.76-13.7 386.26-14.7 388.76-15.7 392.06-15.7L392.06-15.7Q393.81-15.7 395.76-15.43 397.71-15.15 399.21-14.6L399.21-14.6 399.21-16.5Q399.21-19.5 397.41-21.23 395.61-22.95 392.31-22.95L392.31-22.95Q390.16-22.95 388.19-22.18 386.21-21.4 384.01-19.95L384.01-19.95 382.41-23.05Q384.96-24.8 387.51-25.68 390.06-26.55 392.81-26.55L392.81-26.55Q397.81-26.55 400.71-23.78 403.61-21 403.61-16.05L403.61-16.05 403.61-5Q403.61-4.2 403.94-3.83 404.26-3.45 405.01-3.4L405.01-3.4 405.01 0Q404.36 0.1 403.89 0.15 403.41 0.2 403.11 0.2L403.11 0.2Q401.56 0.2 400.79-0.65 400.01-1.5 399.91-2.45L399.91-2.45 399.81-4.1Q398.11-1.9 395.36-0.7 392.61 0.5 389.91 0.5L389.91 0.5Q387.31 0.5 385.26-0.58 383.21-1.65 382.06-3.48 380.91-5.3 380.91-7.55ZM397.91-5.7L397.91-5.7Q398.51-6.4 398.86-7.13 399.21-7.85 399.21-8.35L399.21-8.35 399.21-11.6Q397.66-12.2 395.96-12.53 394.26-12.85 392.61-12.85L392.61-12.85Q389.26-12.85 387.19-11.53 385.11-10.2 385.11-7.9L385.11-7.9Q385.11-6.65 385.79-5.48 386.46-4.3 387.79-3.55 389.11-2.8 391.06-2.8L391.06-2.8Q393.11-2.8 394.96-3.63 396.81-4.45 397.91-5.7ZM410.76-5.15L410.76-36.5 415.16-36.5 415.16-6.75Q415.16-4.6 415.76-4.1 416.36-3.6 417.21-3.6L417.21-3.6Q418.26-3.6 419.21-3.83 420.16-4.05 420.81-4.3L420.81-4.3 421.51-0.7Q420.41-0.25 418.91 0.05 417.41 0.35 416.26 0.35L416.26 0.35Q413.71 0.35 412.24-1.1 410.76-2.55 410.76-5.15L410.76-5.15ZM448.56-4.8L449.61-1.3Q449.06-1.05 448.11-0.65 447.16-0.25 445.91 0.05 444.66 0.35 443.26 0.35L443.26 0.35Q441.66 0.35 440.31-0.23 438.96-0.8 438.16-2.02 437.36-3.25 437.36-5.1L437.36-5.1 437.36-22.65 433.81-22.65 433.81-26.1 437.36-26.1 437.36-34.8 441.76-34.8 441.76-26.1 447.61-26.1 447.61-22.65 441.76-22.65 441.76-6.45Q441.86-5.05 442.71-4.38 443.56-3.7 444.71-3.7L444.71-3.7Q446.01-3.7 447.11-4.15 448.21-4.6 448.56-4.8L448.56-4.8ZM464.75 0.5L464.75 0.5Q461.8 0.5 459.4-0.58 457-1.65 455.25-3.53 453.5-5.4 452.55-7.85 451.6-10.3 451.6-13L451.6-13Q451.6-15.75 452.55-18.2 453.5-20.65 455.25-22.53 457-24.4 459.43-25.48 461.85-26.55 464.8-26.55L464.8-26.55Q467.7-26.55 470.1-25.48 472.5-24.4 474.28-22.53 476.05-20.65 477-18.2 477.95-15.75 477.95-13L477.95-13Q477.95-10.3 477-7.85 476.05-5.4 474.3-3.53 472.55-1.65 470.13-0.58 467.7 0.5 464.75 0.5ZM456.1-12.95L456.1-12.95Q456.1-10.25 457.28-8.05 458.45-5.85 460.4-4.58 462.35-3.3 464.75-3.3L464.75-3.3Q467.15-3.3 469.13-4.6 471.1-5.9 472.28-8.13 473.45-10.35 473.45-13.05L473.45-13.05Q473.45-15.75 472.28-17.95 471.1-20.15 469.13-21.45 467.15-22.75 464.75-22.75L464.75-22.75Q462.35-22.75 460.4-21.43 458.45-20.1 457.28-17.9 456.1-15.7 456.1-12.95ZM494.7 0.5L494.7 0.5Q491.75 0.5 489.35-0.58 486.95-1.65 485.2-3.53 483.45-5.4 482.5-7.85 481.55-10.3 481.55-13L481.55-13Q481.55-15.75 482.5-18.2 483.45-20.65 485.2-22.53 486.95-24.4 489.38-25.48 491.8-26.55 494.75-26.55L494.75-26.55Q497.65-26.55 500.05-25.48 502.45-24.4 504.23-22.53 506-20.65 506.95-18.2 507.9-15.75 507.9-13L507.9-13Q507.9-10.3 506.95-7.85 506-5.4 504.25-3.53 502.5-1.65 500.08-0.58 497.65 0.5 494.7 0.5ZM486.05-12.95L486.05-12.95Q486.05-10.25 487.23-8.05 488.4-5.85 490.35-4.58 492.3-3.3 494.7-3.3L494.7-3.3Q497.1-3.3 499.08-4.6 501.05-5.9 502.23-8.13 503.4-10.35 503.4-13.05L503.4-13.05Q503.4-15.75 502.23-17.95 501.05-20.15 499.08-21.45 497.1-22.75 494.7-22.75L494.7-22.75Q492.3-22.75 490.35-21.43 488.4-20.1 487.23-17.9 486.05-15.7 486.05-12.95ZM513.35-5.15L513.35-36.5 517.75-36.5 517.75-6.75Q517.75-4.6 518.35-4.1 518.95-3.6 519.8-3.6L519.8-3.6Q520.85-3.6 521.8-3.83 522.75-4.05 523.4-4.3L523.4-4.3 524.1-0.7Q523-0.25 521.5 0.05 520 0.35 518.85 0.35L518.85 0.35Q516.3 0.35 514.82-1.1 513.35-2.55 513.35-5.15L513.35-5.15ZM531.95 0L527.54 0 527.54-26.1 531.95-26.1 531.95 0ZM531.95-31L527.54-31 527.54-36.5 531.95-36.5 531.95-31ZM561.69-15.6L561.69 0 557.29 0 557.29-14.6Q557.29-18.75 556.02-20.68 554.74-22.6 552.14-22.6L552.14-22.6Q550.34-22.6 548.57-21.7 546.79-20.8 545.42-19.28 544.04-17.75 543.44-15.75L543.44-15.75 543.44 0 539.04 0 539.04-26.1 543.04-26.1 543.04-20.5Q544.09-22.35 545.74-23.7 547.39-25.05 549.49-25.8 551.59-26.55 553.89-26.55L553.89-26.55Q556.14-26.55 557.67-25.73 559.19-24.9 560.07-23.43 560.94-21.95 561.32-19.95 561.69-17.95 561.69-15.6L561.69-15.6ZM578.94 0.3L578.94 0.3Q576.29 0.3 574.06-0.78 571.84-1.85 570.24-3.73 568.64-5.6 567.76-8 566.89-10.4 566.89-13L566.89-13Q566.89-15.75 567.76-18.2 568.64-20.65 570.26-22.53 571.89-24.4 574.09-25.48 576.29-26.55 578.99-26.55L578.99-26.55Q582.24-26.55 584.66-24.95 587.09-23.35 588.74-20.9L588.74-20.9 588.74-26.1 592.64-26.1 592.64-0.3Q592.64 3.4 590.86 5.95 589.09 8.5 586.06 9.83 583.04 11.15 579.34 11.15L579.34 11.15Q574.94 11.15 572.14 9.6 569.34 8.05 567.49 5.4L567.49 5.4 570.04 3.15Q571.59 5.45 574.06 6.6 576.54 7.75 579.34 7.75L579.34 7.75Q581.74 7.75 583.76 6.88 585.79 6 587.01 4.2 588.24 2.4 588.24-0.3L588.24-0.3 588.24-4.9Q586.79-2.5 584.26-1.1 581.74 0.3 578.94 0.3ZM580.29-3.3L580.29-3.3Q581.69-3.3 582.99-3.8 584.29-4.3 585.39-5.13 586.49-5.95 587.24-7 587.99-8.05 588.24-9.15L588.24-9.15 588.24-16.65Q587.54-18.45 586.24-19.83 584.94-21.2 583.29-21.98 581.64-22.75 579.89-22.75L579.89-22.75Q577.89-22.75 576.31-21.9 574.74-21.05 573.64-19.63 572.54-18.2 571.94-16.45 571.34-14.7 571.34-12.9L571.34-12.9Q571.34-10.95 572.04-9.22 572.74-7.5 573.94-6.15 575.14-4.8 576.79-4.05 578.44-3.3 580.29-3.3ZM610.33-7.55L610.33-7.55Q610.33-10.05 611.76-11.88 613.18-13.7 615.68-14.7 618.18-15.7 621.48-15.7L621.48-15.7Q623.23-15.7 625.18-15.43 627.13-15.15 628.63-14.6L628.63-14.6 628.63-16.5Q628.63-19.5 626.83-21.23 625.03-22.95 621.73-22.95L621.73-22.95Q619.58-22.95 617.61-22.18 615.63-21.4 613.43-19.95L613.43-19.95 611.83-23.05Q614.38-24.8 616.93-25.68 619.48-26.55 622.23-26.55L622.23-26.55Q627.23-26.55 630.13-23.78 633.03-21 633.03-16.05L633.03-16.05 633.03-5Q633.03-4.2 633.36-3.83 633.68-3.45 634.43-3.4L634.43-3.4 634.43 0Q633.78 0.1 633.31 0.15 632.83 0.2 632.53 0.2L632.53 0.2Q630.98 0.2 630.21-0.65 629.43-1.5 629.33-2.45L629.33-2.45 629.23-4.1Q627.53-1.9 624.78-0.7 622.03 0.5 619.33 0.5L619.33 0.5Q616.73 0.5 614.68-0.58 612.63-1.65 611.48-3.48 610.33-5.3 610.33-7.55ZM627.33-5.7L627.33-5.7Q627.93-6.4 628.28-7.13 628.63-7.85 628.63-8.35L628.63-8.35 628.63-11.6Q627.08-12.2 625.38-12.53 623.68-12.85 622.03-12.85L622.03-12.85Q618.68-12.85 616.61-11.53 614.53-10.2 614.53-7.9L614.53-7.9Q614.53-6.65 615.21-5.48 615.88-4.3 617.21-3.55 618.53-2.8 620.48-2.8L620.48-2.8Q622.53-2.8 624.38-3.63 626.23-4.45 627.33-5.7ZM653.88-26.25L653.88-22.25Q650.58-22.2 648.06-20.58 645.53-18.95 644.48-16.1L644.48-16.1 644.48 0 640.08 0 640.08-26.1 644.18-26.1 644.18-20.05Q645.53-22.75 647.76-24.43 649.98-26.1 652.43-26.3L652.43-26.3Q652.93-26.3 653.28-26.3 653.63-26.3 653.88-26.25L653.88-26.25ZM669.03 0.5L669.03 0.5Q666.08 0.5 663.68-0.58 661.28-1.65 659.53-3.53 657.78-5.4 656.83-7.85 655.88-10.3 655.88-13L655.88-13Q655.88-15.75 656.83-18.2 657.78-20.65 659.53-22.53 661.28-24.4 663.7-25.48 666.13-26.55 669.08-26.55L669.08-26.55Q671.98-26.55 674.38-25.48 676.78-24.4 678.55-22.53 680.33-20.65 681.28-18.2 682.23-15.75 682.23-13L682.23-13Q682.23-10.3 681.28-7.85 680.33-5.4 678.58-3.53 676.83-1.65 674.4-0.58 671.98 0.5 669.03 0.5ZM660.38-12.95L660.38-12.95Q660.38-10.25 661.55-8.05 662.73-5.85 664.68-4.58 666.63-3.3 669.03-3.3L669.03-3.3Q671.43-3.3 673.4-4.6 675.38-5.9 676.55-8.13 677.73-10.35 677.73-13.05L677.73-13.05Q677.73-15.75 676.55-17.95 675.38-20.15 673.4-21.45 671.43-22.75 669.03-22.75L669.03-22.75Q666.63-22.75 664.68-21.43 662.73-20.1 661.55-17.9 660.38-15.7 660.38-12.95ZM687.33-10.45L687.33-10.45 687.33-26.1 691.73-26.1 691.73-11.3Q691.73-7.3 693.13-5.3 694.53-3.3 697.28-3.3L697.28-3.3Q699.08-3.3 700.75-4.08 702.43-4.85 703.78-6.3 705.13-7.75 705.88-9.75L705.88-9.75 705.88-26.1 710.28-26.1 710.28-5Q710.28-4.2 710.6-3.83 710.93-3.45 711.68-3.4L711.68-3.4 711.68 0Q710.93 0.1 710.5 0.13 710.08 0.15 709.68 0.15L709.68 0.15Q708.43 0.15 707.53-0.63 706.63-1.4 706.58-2.55L706.58-2.55 706.48-5.6Q704.78-2.7 701.9-1.1 699.03 0.5 695.63 0.5L695.63 0.5Q691.53 0.5 689.43-2.27 687.33-5.05 687.33-10.45ZM740.27-15.6L740.27 0 735.87 0 735.87-14.6Q735.87-18.75 734.6-20.68 733.32-22.6 730.72-22.6L730.72-22.6Q728.92-22.6 727.15-21.7 725.37-20.8 724-19.28 722.62-17.75 722.02-15.75L722.02-15.75 722.02 0 717.62 0 717.62-26.1 721.62-26.1 721.62-20.5Q722.67-22.35 724.32-23.7 725.97-25.05 728.07-25.8 730.17-26.55 732.47-26.55L732.47-26.55Q734.72-26.55 736.25-25.73 737.77-24.9 738.65-23.43 739.52-21.95 739.9-19.95 740.27-17.95 740.27-15.6L740.27-15.6ZM745.42-13L745.42-13Q745.42-16.7 746.95-19.78 748.47-22.85 751.15-24.7 753.82-26.55 757.27-26.55L757.27-26.55Q760.42-26.55 762.92-24.9 765.42-23.25 766.82-20.9L766.82-20.9 766.82-36.5 771.22-36.5 771.22-5Q771.22-4.2 771.55-3.83 771.87-3.45 772.62-3.4L772.62-3.4 772.62 0Q771.37 0.2 770.67 0.2L770.67 0.2Q769.37 0.2 768.4-0.7 767.42-1.6 767.42-2.7L767.42-2.7 767.42-4.9Q765.87-2.4 763.27-0.95 760.67 0.5 757.87 0.5L757.87 0.5Q755.17 0.5 752.9-0.58 750.62-1.65 748.95-3.55 747.27-5.45 746.35-7.88 745.42-10.3 745.42-13ZM766.82-9.15L766.82-9.15 766.82-16.65Q766.22-18.35 764.87-19.73 763.52-21.1 761.85-21.93 760.17-22.75 758.52-22.75L758.52-22.75Q756.57-22.75 755-21.93 753.42-21.1 752.3-19.73 751.17-18.35 750.57-16.6 749.97-14.85 749.97-12.95L749.97-12.95Q749.97-11 750.65-9.25 751.32-7.5 752.55-6.15 753.77-4.8 755.4-4.05 757.02-3.3 758.92-3.3L758.92-3.3Q760.12-3.3 761.4-3.75 762.67-4.2 763.82-5 764.97-5.8 765.77-6.88 766.57-7.95 766.82-9.15ZM804.22 0L791.92 0 791.92-35.5 804.22-35.5Q809.92-35.5 813.74-33.13 817.57-30.75 819.47-26.73 821.37-22.7 821.37-17.8L821.37-17.8Q821.37-12.4 819.27-8.4 817.17-4.4 813.32-2.2 809.47 0 804.22 0L804.22 0ZM816.82-17.8L816.82-17.8Q816.82-21.8 815.34-24.9 813.87-28 811.07-29.75 808.27-31.5 804.22-31.5L804.22-31.5 796.42-31.5 796.42-4 804.22-4Q808.32-4 811.12-5.83 813.92-7.65 815.37-10.78 816.82-13.9 816.82-17.8ZM824.71-7.55L824.71-7.55Q824.71-10.05 826.14-11.88 827.56-13.7 830.06-14.7 832.56-15.7 835.86-15.7L835.86-15.7Q837.61-15.7 839.56-15.43 841.51-15.15 843.01-14.6L843.01-14.6 843.01-16.5Q843.01-19.5 841.21-21.23 839.41-22.95 836.11-22.95L836.11-22.95Q833.96-22.95 831.99-22.18 830.01-21.4 827.81-19.95L827.81-19.95 826.21-23.05Q828.76-24.8 831.31-25.68 833.86-26.55 836.61-26.55L836.61-26.55Q841.61-26.55 844.51-23.78 847.41-21 847.41-16.05L847.41-16.05 847.41-5Q847.41-4.2 847.74-3.83 848.06-3.45 848.81-3.4L848.81-3.4 848.81 0Q848.16 0.1 847.69 0.15 847.21 0.2 846.91 0.2L846.91 0.2Q845.36 0.2 844.59-0.65 843.81-1.5 843.71-2.45L843.71-2.45 843.61-4.1Q841.91-1.9 839.16-0.7 836.41 0.5 833.71 0.5L833.71 0.5Q831.11 0.5 829.06-0.58 827.01-1.65 825.86-3.48 824.71-5.3 824.71-7.55ZM841.71-5.7L841.71-5.7Q842.31-6.4 842.66-7.13 843.01-7.85 843.01-8.35L843.01-8.35 843.01-11.6Q841.46-12.2 839.76-12.53 838.06-12.85 836.41-12.85L836.41-12.85Q833.06-12.85 830.99-11.53 828.91-10.2 828.91-7.9L828.91-7.9Q828.91-6.65 829.59-5.48 830.26-4.3 831.59-3.55 832.91-2.8 834.86-2.8L834.86-2.8Q836.91-2.8 838.76-3.63 840.61-4.45 841.71-5.7ZM866.71-4.8L867.76-1.3Q867.21-1.05 866.26-0.65 865.31-0.25 864.06 0.05 862.81 0.35 861.41 0.35L861.41 0.35Q859.81 0.35 858.46-0.23 857.11-0.8 856.31-2.02 855.51-3.25 855.51-5.1L855.51-5.1 855.51-22.65 851.96-22.65 851.96-26.1 855.51-26.1 855.51-34.8 859.91-34.8 859.91-26.1 865.76-26.1 865.76-22.65 859.91-22.65 859.91-6.45Q860.01-5.05 860.86-4.38 861.71-3.7 862.86-3.7L862.86-3.7Q864.16-3.7 865.26-4.15 866.36-4.6 866.71-4.8L866.71-4.8ZM869.81-7.55L869.81-7.55Q869.81-10.05 871.23-11.88 872.66-13.7 875.16-14.7 877.66-15.7 880.96-15.7L880.96-15.7Q882.71-15.7 884.66-15.43 886.61-15.15 888.11-14.6L888.11-14.6 888.11-16.5Q888.11-19.5 886.31-21.23 884.51-22.95 881.21-22.95L881.21-22.95Q879.06-22.95 877.08-22.18 875.11-21.4 872.91-19.95L872.91-19.95 871.31-23.05Q873.86-24.8 876.41-25.68 878.96-26.55 881.71-26.55L881.71-26.55Q886.71-26.55 889.61-23.78 892.51-21 892.51-16.05L892.51-16.05 892.51-5Q892.51-4.2 892.83-3.83 893.16-3.45 893.91-3.4L893.91-3.4 893.91 0Q893.26 0.1 892.78 0.15 892.31 0.2 892.01 0.2L892.01 0.2Q890.46 0.2 889.68-0.65 888.91-1.5 888.81-2.45L888.81-2.45 888.71-4.1Q887.01-1.9 884.26-0.7 881.51 0.5 878.81 0.5L878.81 0.5Q876.21 0.5 874.16-0.58 872.11-1.65 870.96-3.48 869.81-5.3 869.81-7.55ZM886.81-5.7L886.81-5.7Q887.41-6.4 887.76-7.13 888.11-7.85 888.11-8.35L888.11-8.35 888.11-11.6Q886.56-12.2 884.86-12.53 883.16-12.85 881.51-12.85L881.51-12.85Q878.16-12.85 876.08-11.53 874.01-10.2 874.01-7.9L874.01-7.9Q874.01-6.65 874.68-5.48 875.36-4.3 876.68-3.55 878.01-2.8 879.96-2.8L879.96-2.8Q882.01-2.8 883.86-3.63 885.71-4.45 886.81-5.7ZM912.96 0.5L912.96 0.5Q909.91 0.5 907.41-1 904.91-2.5 903.46-4.9L903.46-4.9 903.46 0 899.56 0 899.56-36.5 903.96-36.5 903.96-20.9Q905.61-23.45 908.01-25 910.41-26.55 913.61-26.55L913.61-26.55Q916.31-26.55 918.46-25.43 920.61-24.3 922.13-22.38 923.66-20.45 924.48-18.03 925.31-15.6 925.31-12.95L925.31-12.95Q925.31-10.2 924.38-7.78 923.46-5.35 921.76-3.48 920.06-1.6 917.83-0.55 915.61 0.5 912.96 0.5ZM911.86-3.3L911.86-3.3Q913.81-3.3 915.46-4.1 917.11-4.9 918.31-6.25 919.51-7.6 920.16-9.35 920.81-11.1 920.81-12.95L920.81-12.95Q920.81-15.5 919.73-17.75 918.66-20 916.73-21.38 914.81-22.75 912.26-22.75L912.26-22.75Q910.41-22.75 908.81-21.9 907.21-21.05 905.98-19.68 904.76-18.3 903.96-16.65L903.96-16.65 903.96-9.1Q904.21-7.85 905.01-6.8 905.81-5.75 906.96-4.98 908.11-4.2 909.38-3.75 910.66-3.3 911.86-3.3ZM944.5-26.25L944.5-22.25Q941.2-22.2 938.68-20.58 936.15-18.95 935.1-16.1L935.1-16.1 935.1 0 930.7 0 930.7-26.1 934.8-26.1 934.8-20.05Q936.15-22.75 938.38-24.43 940.6-26.1 943.05-26.3L943.05-26.3Q943.55-26.3 943.9-26.3 944.25-26.3 944.5-26.25L944.5-26.25ZM953.25 0L948.85 0 948.85-26.1 953.25-26.1 953.25 0ZM953.25-31L948.85-31 948.85-36.5 953.25-36.5 953.25-31ZM971.9 0.5L971.9 0.5Q968.95 0.5 966.52-0.58 964.1-1.65 962.32-3.55 960.55-5.45 959.57-7.9 958.6-10.35 958.6-13.1L958.6-13.1Q958.6-16.8 960.25-19.85 961.9-22.9 964.9-24.73 967.9-26.55 971.85-26.55L971.85-26.55Q975.7-26.55 978.57-24.83 981.45-23.1 982.85-20.2L982.85-20.2 978.55-18.85Q977.55-20.7 975.75-21.73 973.95-22.75 971.75-22.75L971.75-22.75Q969.35-22.75 967.37-21.5 965.4-20.25 964.25-18.07 963.1-15.9 963.1-13.1L963.1-13.1Q963.1-10.35 964.27-8.13 965.45-5.9 967.42-4.6 969.4-3.3 971.8-3.3L971.8-3.3Q973.35-3.3 974.77-3.85 976.2-4.4 977.27-5.33 978.35-6.25 978.75-7.35L978.75-7.35 983.05-6.05Q982.25-4.15 980.62-2.68 979-1.2 976.77-0.35 974.55 0.5 971.9 0.5ZM1011.2 0L1006.45 0 997.4-12.7 992.45-8.05 992.45 0 988.05 0 988.05-36.5 992.45-36.5 992.45-12.65 1005.95-26.05 1010.7-26.05 1000.3-15.25 1011.2 0ZM1023.94 0.5L1023.94 0.5Q1020.69 0.5 1017.84-0.58 1014.99-1.65 1012.94-3.8L1012.94-3.8 1014.64-6.9Q1016.89-4.8 1019.14-3.9 1021.39-3 1023.74-3L1023.74-3Q1026.44-3 1028.14-4.03 1029.84-5.05 1029.84-7.05L1029.84-7.05Q1029.84-8.5 1028.97-9.2 1028.09-9.9 1026.49-10.38 1024.89-10.85 1022.69-11.45L1022.69-11.45Q1019.99-12.25 1018.14-13.15 1016.29-14.05 1015.34-15.4 1014.39-16.75 1014.39-18.8L1014.39-18.8Q1014.39-21.3 1015.69-23.03 1016.99-24.75 1019.27-25.65 1021.54-26.55 1024.44-26.55L1024.44-26.55Q1027.34-26.55 1029.69-25.65 1032.04-24.75 1033.74-23L1033.74-23 1031.74-19.95Q1030.19-21.55 1028.34-22.33 1026.49-23.1 1024.19-23.1L1024.19-23.1Q1022.84-23.1 1021.54-22.78 1020.24-22.45 1019.39-21.63 1018.54-20.8 1018.54-19.3L1018.54-19.3Q1018.54-18.05 1019.22-17.32 1019.89-16.6 1021.22-16.1 1022.54-15.6 1024.44-15L1024.44-15Q1027.39-14.15 1029.57-13.3 1031.74-12.45 1032.94-11.1 1034.14-9.75 1034.14-7.35L1034.14-7.35Q1034.14-3.65 1031.34-1.58 1028.54 0.5 1023.94 0.5Z" opacity="1" transform="matrix(1,0,0,1,0,0)" fill="#252422" class="slogan-text-1" data-fill-palette-color="secondary" id="text-1"></path></svg></g></svg></g></svg></g></svg></g><g transform="matrix(1,0,0,1,0,0.26689243103899685)"><svg viewBox="0 0 106.75857931319258 106.75697241560032" height="106.75697241560032" width="106.75857931319258"><g><svg xmlns="http://www.w3.org/2000/svg" xmlns:xlink="http://www.w3.org/1999/xlink" version="1.1" x="0" y="0" viewBox="7.999347538361236 8.000500000000002 84.00076435389883 83.9995" enable-background="new 0 0 100 100" xml:space="preserve" height="106.75697241560032" width="106.75857931319258" class="icon-icon-0" data-fill-palette-color="accent" id="icon-0"><path d="M88.874 80c-3.149 0-6.285-0.309-9.406-0.788l6.295-14.861c0.349-0.82 0.313-1.753-0.097-2.546-0.407-0.792-1.148-1.361-2.019-1.554L64.742 56.07c-0.826-0.179-1.714-0.003-2.408 0.501s-1.14 1.28-1.225 2.134l-1.542 15.618C57.5 73.708 55.005 72.967 53 72.392V32h36c1.409 0 2.628-0.98 2.93-2.357 0.302-1.375-0.393-2.776-1.673-3.368l-39-18c-0.797-0.366-1.717-0.366-2.514 0l-39 18c-1.28 0.592-1.975 1.992-1.673 3.368C8.372 31.02 9.591 32 11 32h36v38.767c-3.218-0.809-6.468-1.494-9.753-1.982l-4.221-8.443 3.316-1.658c1.482-0.741 2.083-2.543 1.342-4.025-0.744-1.484-2.546-2.083-4.025-1.342l-12 6c-1.482 0.741-2.083 2.543-1.342 4.025 0.749 1.494 2.556 2.077 4.025 1.342l3.316-1.658 2.539 5.077c-6.572-0.282-13.302 0.489-20.249 3.088-1.55 0.58-2.338 2.309-1.758 3.86s2.297 2.341 3.861 1.759C38.072 67.081 61.474 86 88.871 86c1.943 0 3.132-1.444 3.129-3.007C91.997 81.433 90.804 80 88.874 80zM24.658 26L50 14.305 75.342 26H24.658zM73.43 78.082c-2.906-0.652-5.459-1.337-8.001-2.052l1.321-13.37 12.082 2.672L73.43 78.082z" fill="#eb5e28" data-fill-palette-color="accent"></path><path d="M32 86c-1.657 0-3-1.343-3-3 0-1.657 1.343-3 3-3s3 1.343 3 3C35 84.657 33.657 86 32 86z" fill="#eb5e28" data-fill-palette-color="accent"></path><path d="M17 89c-1.657 0-3-1.343-3-3 0-1.657 1.343-3 3-3s3 1.343 3 3C20 87.657 18.657 89 17 89z" fill="#eb5e28" data-fill-palette-color="accent"></path><path d="M50 92c-1.657 0-3-1.343-3-3 0-1.657 1.343-3 3-3s3 1.343 3 3C53 90.657 51.657 92 50 92z" fill="#eb5e28" data-fill-palette-color="accent"></path></svg></g></svg></g></svg></g><defs></defs></svg><rect width="395.52" height="77.72594776097577" fill="none" stroke="none" visibility="hidden"></rect></g></svg></g></svg>